<svg width="56" height="56" viewBox="0 0 56 56" fill="none" xmlns="http://www.w3.org/2000/svg">
<circle cx="28" cy="28" r="28" fill="#5B8A72"/>
<path d="M22.5 42C22.8944 42.0017 23.2853 41.9252 23.65 41.775C24.0147 41.6248 24.3461 41.4039 24.625 41.125C24.9039 40.8461 25.1248 40.5147 25.275 40.15C25.4252 39.7853 25.5017 39.3944 25.5 39V33" stroke="#F1ECC3" stroke-width="2" stroke-linecap="round" stroke-linejoin="round"/>
<path d="M33.5 42C33.1056 42.0017 32.7147 41.9252 32.35 41.775C31.9853 41.6248 31.6539 41.4039 31.375 41.125C31.0961 40.8461 30.8752 40.5147 30.725 40.15C30.5748 39.7853 30.4984 39.3944 30.5 39V33" stroke="#F1ECC3" stroke-width="2" stroke-linecap="round" stroke-linejoin="round"/>
<path d="M31 33H33C33.3944 32.9983 33.7853 33.0748 34.15 33.225C34.5147 33.3752 34.8461 33.5961 35.125 33.875C35.4039 34.1539 35.6248 34.4853 35.775 34.85C35.9252 35.2147 36.0017 35.6056 36 36V37C35.9983 37.3944 36.0748 37.7853 36.225 38.15C36.3752 38.5147 36.5961 38.8461 36.875 39.125C37.1539 39.4039 37.4853 39.6248 37.85 39.775C38.2147 39.9252 38.6056 40.0016 39 40" stroke="#F1ECC3" stroke-width="2" stroke-linecap="round" stroke-linejoin="round"/>
<path d="M25 33H23C22.6056 32.9983 22.2147 33.0748 21.85 33.225C21.4853 33.3752 21.1539 33.5961 20.875 33.875C20.5961 34.1539 20.3752 34.4853 20.225 34.85C20.0748 35.2147 19.9983 35.6056 20 36V37C20.0017 37.3944 19.9252 37.7853 19.775 38.15C19.6248 38.5147 19.4039 38.8461 19.125 39.125C18.8461 39.4039 18.5147 39.6248 18.15 39.775C17.7853 39.9252 17.3944 40.0016 17 40" stroke="#F1ECC3" stroke-width="2" stroke-linecap="round" stroke-linejoin="round"/>
<path d="M25.975 20C25.3875 19.0806 24.5781 18.3239 23.6212 17.7997C22.6644 17.2754 21.591 17.0004 20.5 17C20.0149 17.8397 19.7238 18.7774 19.6481 19.7442C19.5724 20.711 19.714 21.6825 20.0625 22.5875C19.379 23.5951 19.0093 24.7825 19 26V27C19 28.5913 19.6321 30.1174 20.7574 31.2426C21.8826 32.3679 23.4087 33 25 33H31C32.5913 33 34.1174 32.3679 35.2426 31.2426C36.3679 30.1174 37 28.5913 37 27V26C36.9907 24.7825 36.621 23.5951 35.9375 22.5875C36.286 21.6825 36.4276 20.711 36.3519 19.7442C36.2762 18.7774 35.9851 17.8397 35.5 17C34.409 17.0004 33.3356 17.2754 32.3787 17.7997C31.4219 18.3239 30.6125 19.0806 30.025 20H25.975Z" stroke="#F1ECC3" stroke-width="2" stroke-linecap="round" stroke-linejoin="round"/>
</svg>
