<svg width="56" height="56" viewBox="0 0 56 56" fill="none" xmlns="http://www.w3.org/2000/svg">
<circle cx="28" cy="28" r="28" fill="#5B8A72"/>
<path d="M28 33C30.7614 33 33 30.7614 33 28C33 25.2386 30.7614 23 28 23C25.2386 23 23 25.2386 23 28C23 30.7614 25.2386 33 28 33Z" stroke="#151B18" stroke-width="2" stroke-miterlimit="10"/>
<path d="M33.5 16.5H22.5C19.1863 16.5 16.5 19.1863 16.5 22.5V33.5C16.5 36.8137 19.1863 39.5 22.5 39.5H33.5C36.8137 39.5 39.5 36.8137 39.5 33.5V22.5C39.5 19.1863 36.8137 16.5 33.5 16.5Z" stroke="#151B18" stroke-width="2" stroke-linecap="round" stroke-linejoin="round"/>
<path d="M34.5 23C35.3284 23 36 22.3284 36 21.5C36 20.6716 35.3284 20 34.5 20C33.6716 20 33 20.6716 33 21.5C33 22.3284 33.6716 23 34.5 23Z" fill="#151B18"/>
</svg>
