<svg width="56" height="56" viewBox="0 0 56 56" fill="none" xmlns="http://www.w3.org/2000/svg">
<circle cx="28" cy="28" r="28" fill="#5B8A72"/>
<path d="M38.5 16.5H17.5C16.9477 16.5 16.5 16.9477 16.5 17.5V38.5C16.5 39.0523 16.9477 39.5 17.5 39.5H38.5C39.0523 39.5 39.5 39.0523 39.5 38.5V17.5C39.5 16.9477 39.0523 16.5 38.5 16.5Z" stroke="#F1ECC3" stroke-width="2" stroke-linecap="round" stroke-linejoin="round"/>
<path d="M27 26V34" stroke="#F1ECC3" stroke-width="2" stroke-linecap="round" stroke-linejoin="round"/>
<path d="M23 26V34" stroke="#F1ECC3" stroke-width="2" stroke-linecap="round" stroke-linejoin="round"/>
<path d="M27 29.5C27 28.5717 27.3687 27.6815 28.0251 27.0251C28.6815 26.3687 29.5717 26 30.5 26C31.4283 26 32.3185 26.3687 32.9749 27.0251C33.6313 27.6815 34 28.5717 34 29.5V34" stroke="#F1ECC3" stroke-width="2" stroke-linecap="round" stroke-linejoin="round"/>
<path d="M23 23.5C23.8284 23.5 24.5 22.8284 24.5 22C24.5 21.1716 23.8284 20.5 23 20.5C22.1716 20.5 21.5 21.1716 21.5 22C21.5 22.8284 22.1716 23.5 23 23.5Z" fill="#F1ECC3"/>
</svg>
